<svg xmlns="http://www.w3.org/2000/svg" width="137.788" height="79.286" viewBox="0 0 137.788 79.286"><defs><style>.a{fill:#ffffff;}</style></defs><g transform="translate(0)"><g transform="translate(0 40.324)"><path class="a" d="M269.266-207.48H262.62a.681.681,0,0,1-.681-.681v-25.525a.681.681,0,0,1,.681-.681h6.646a.682.682,0,0,1,.681.681v25.525A.681.681,0,0,1,269.266-207.48Zm-6.646-36.9h6.646a.681.681,0,0,1,.681.681v5.779a.681.681,0,0,1-.681.681H262.62a.681.681,0,0,1-.681-.681V-243.7A.681.681,0,0,1,262.62-244.385Zm27.286,13.211c1.656,2.437,1.656,4.9,1.656,11.647a.681.681,0,0,1-.681.681H279.463a9.54,9.54,0,0,0,.505,3.529,3.373,3.373,0,0,0,3.5,2.093,10.64,10.64,0,0,0,2.859-.355,19.92,19.92,0,0,0,3.591-1.429.673.673,0,0,1,.248-.086.679.679,0,0,1,.765.58l.723,5.105a.68.68,0,0,1-.45.734l-.155.055a21.973,21.973,0,0,1-8.16,1.67,13.438,13.438,0,0,1-5.8-1.141,8.614,8.614,0,0,1-4.678-5.92v0A18.873,18.873,0,0,1,272-216.32c-.18-1.462-.242-2.836-.242-2.966a60.255,60.255,0,0,1,.222-6.444,13.141,13.141,0,0,1,1.593-5.387l.017-.031a7.678,7.678,0,0,1,4.229-3.327,12.935,12.935,0,0,1,4.155-.615,10.052,10.052,0,0,1,5.106,1.192A8.367,8.367,0,0,1,289.906-231.174Zm-10.131,3.426a13.766,13.766,0,0,0-.314,3.736h5.15a12.976,12.976,0,0,0-.4-3.933,2.17,2.17,0,0,0-2.333-1.5A2.044,2.044,0,0,0,279.776-227.748ZM302-207.48h-6.791a.681.681,0,0,1-.681-.681v-25.525a.681.681,0,0,1,.681-.681h6.261a.681.681,0,0,1,.681.681v2.621a10.926,10.926,0,0,1,2.354-2.357,7.493,7.493,0,0,1,4.43-1.474c7.135,0,7.135,5.945,7.135,8.049v18.687a.681.681,0,0,1-.681.681H308.6a.681.681,0,0,1-.681-.681v-16.725h0c0-.837,0-2.725-1.537-2.725s-2.582,1.034-3.7,2.234v17.217a.681.681,0,0,1-.681.681Zm19.332-19.015-.037.032a.679.679,0,0,1-.955-.1l-3.187-3.958a.68.68,0,0,1,.12-.955,16.3,16.3,0,0,1,3.814-2.405,15.977,15.977,0,0,1,6.38-1.109,16.09,16.09,0,0,1,4.723.74,8.559,8.559,0,0,1,3.416,1.963,7.126,7.126,0,0,1,2.126,5.683v12.522a1.214,1.214,0,0,0,.306.686.723.723,0,0,0,.488.223h.019a.681.681,0,0,1,.681.681v4.624a.681.681,0,0,1-.681.681h-1.974a6.3,6.3,0,0,1-4.039-1.3,6.5,6.5,0,0,1-1.371-1.5,9.351,9.351,0,0,1-.642.721h0a6.74,6.74,0,0,1-1.375,1.056l-.063.037a9.969,9.969,0,0,1-4.742,1.376,7.631,7.631,0,0,1-5.552-2.222,8.023,8.023,0,0,1-1.968-5.731,9.536,9.536,0,0,1,1.529-5.26l.019-.032a10.105,10.105,0,0,1,4.3-3.541l.046-.023a20.916,20.916,0,0,1,3.645-1.243,22.975,22.975,0,0,1,3.274-.548c0-.892-.01-1.509-.055-1.939a1.81,1.81,0,0,0-.3-.94l-.005-.008a1.77,1.77,0,0,0-.809-.562,3.9,3.9,0,0,0-1.426-.25c-2.675,0-4.392,1.481-5.7,2.61Zm7.383,12.351a5.376,5.376,0,0,0,.865-3.12v-3.114c-1.8.418-5,1.511-5,4.751a2.761,2.761,0,0,0,.6,1.81,1.824,1.824,0,0,0,1.417.64,2.51,2.51,0,0,0,2.114-.967Zm19.309,6.663H341.23a.681.681,0,0,1-.681-.681v-35.351a.681.681,0,0,1,.681-.681h6.791a.681.681,0,0,1,.681.681v35.351a.681.681,0,0,1-.681.681" transform="translate(-211.118 245.769)"/><path class="a" d="M147.134-210.474H135.68a.683.683,0,0,1-.683-.683v-5.286h0v-.141a.686.686,0,0,1,.684-.684h.4v0h11.707a4.412,4.412,0,0,0,4.4-4.4h0a4.412,4.412,0,0,0-4.4-4.4H136.088v0h-.4a.686.686,0,0,1-.684-.684v-.141h0v-5.138h0v-.141a.686.686,0,0,1,.684-.684h.4v0h11.707a4.412,4.412,0,0,0,4.4-4.4h0a4.412,4.412,0,0,0-4.4-4.4H136.088v0h-.4a.686.686,0,0,1-.684-.684v-.141h0v-5.286a.683.683,0,0,1,.683-.683h11.455a27.157,27.157,0,0,1,5.925.442,9.052,9.052,0,0,1,4.659,2.562,9.465,9.465,0,0,1,2.434,4.012,13.905,13.905,0,0,1,.522,4.107,9.89,9.89,0,0,1-1.66,5.754,7.737,7.737,0,0,1-2.186,2.114,7.743,7.743,0,0,1,2.186,2.115,9.89,9.89,0,0,1,1.66,5.754,13.9,13.9,0,0,1-.522,4.107,9.467,9.467,0,0,1-2.434,4.013,9.053,9.053,0,0,1-4.659,2.562A27.157,27.157,0,0,1,147.134-210.474ZM135.68-225.068h5.727a.686.686,0,0,1,.684.684v5.428a.686.686,0,0,1-.684.684H135.68a.686.686,0,0,1-.684-.684v-5.428A.686.686,0,0,1,135.68-225.068Zm-7.551.655h4.623a.553.553,0,0,1,.552.552v4.382a.553.553,0,0,1-.552.552h-4.623a.554.554,0,0,1-.552-.552v-4.382A.554.554,0,0,1,128.129-224.413Zm-7.657.529H124.2a.447.447,0,0,1,.445.446v3.537a.447.447,0,0,1-.445.445h-3.732a.447.447,0,0,1-.446-.445v-3.537A.447.447,0,0,1,120.472-223.884Zm-7.453.771h2.432a.291.291,0,0,1,.29.29v2.3a.291.291,0,0,1-.29.29h-2.432a.291.291,0,0,1-.29-.29v-2.3A.291.291,0,0,1,113.019-223.113Zm16.206,7.8h2.432a.291.291,0,0,1,.29.29v2.3a.291.291,0,0,1-.29.29h-2.432a.291.291,0,0,1-.29-.29v-2.3A.291.291,0,0,1,129.225-215.315Zm-8.1,0h2.432a.291.291,0,0,1,.29.29v2.3a.291.291,0,0,1-.29.29h-2.432a.291.291,0,0,1-.29-.29v-2.3A.291.291,0,0,1,121.122-215.315Zm-7.869.278h1.963a.235.235,0,0,1,.234.234v1.861a.235.235,0,0,1-.234.234h-1.963a.235.235,0,0,1-.234-.234V-214.8A.235.235,0,0,1,113.254-215.037ZM129.225-246.5h2.432a.291.291,0,0,1,.29.29v2.3a.291.291,0,0,1-.29.29h-2.432a.291.291,0,0,1-.29-.29v-2.3A.291.291,0,0,1,129.225-246.5Zm-8.1,0h2.432a.291.291,0,0,1,.29.29v2.3a.291.291,0,0,1-.29.29h-2.432a.291.291,0,0,1-.29-.29v-2.3A.291.291,0,0,1,121.122-246.5Zm-7.869.278h1.963a.235.235,0,0,1,.234.234v1.861a.235.235,0,0,1-.234.234h-1.963a.235.235,0,0,1-.234-.234v-1.861A.235.235,0,0,1,113.254-246.225Zm22.427,5.551h5.727a.686.686,0,0,1,.684.684v5.428a.686.686,0,0,1-.684.684H135.68a.686.686,0,0,1-.684-.684v-5.428A.686.686,0,0,1,135.68-240.673Zm-7.551.655h4.623a.553.553,0,0,1,.552.552v4.382a.553.553,0,0,1-.552.552h-4.623a.554.554,0,0,1-.552-.552v-4.382A.553.553,0,0,1,128.129-240.018Zm-7.657.529H124.2a.447.447,0,0,1,.445.446v3.537a.447.447,0,0,1-.445.446h-3.732a.447.447,0,0,1-.446-.446v-3.537A.447.447,0,0,1,120.472-239.49Zm-7.453.771h2.432a.291.291,0,0,1,.29.29v2.3a.291.291,0,0,1-.29.29h-2.432a.291.291,0,0,1-.29-.29v-2.3a.291.291,0,0,1,.29-.29Zm15.11,6.509h4.623a.553.553,0,0,1,.552.552v4.382a.553.553,0,0,1-.552.552h-4.623a.554.554,0,0,1-.552-.552v-4.382A.554.554,0,0,1,128.129-232.209Zm-7.657.529H124.2a.447.447,0,0,1,.445.445v3.537a.447.447,0,0,1-.445.446h-3.732a.447.447,0,0,1-.446-.446v-3.537A.447.447,0,0,1,120.472-231.68Zm-7.743.427h3.013a.361.361,0,0,1,.359.36v2.855a.361.361,0,0,1-.359.36h-3.013a.361.361,0,0,1-.36-.36v-2.855a.361.361,0,0,1,.36-.36" transform="translate(-112.369 248.457)"/></g><g transform="translate(22.711)"><path class="a" d="M181.11-331.351h7.361v-13.9h9.859v-6.179h-9.859v-7.179h14.812V-364.7H181.11Z" transform="translate(-180.465 365.527)"/><path class="a" d="M180.5-333.25h6.07v-13.258a.646.646,0,0,1,.645-.645h9.214v-4.888h-9.214a.646.646,0,0,1-.645-.645v-7.179a.646.646,0,0,1,.645-.645h14.166v-4.8H180.5Zm6.715,1.291h-7.361a.646.646,0,0,1-.645-.645v-33.349a.646.646,0,0,1,.645-.645h22.172a.646.646,0,0,1,.645.645v6.088a.646.646,0,0,1-.645.645H187.862v5.888h9.214a.646.646,0,0,1,.645.645v6.179a.646.646,0,0,1-.645.645h-9.214V-332.6a.646.646,0,0,1-.645.645" transform="translate(-179.211 366.781)"/><path class="a" d="M237.233-332.253a8.542,8.542,0,0,1,5.816-2.635,3.251,3.251,0,0,1,2.635,1.045c.454.636.454,1.318.454,3.68a20.18,20.18,0,0,0-6.906,1.681,8.238,8.238,0,0,0-5.18,7.769c0,5.543,3.908,6.861,6.452,6.861a8.782,8.782,0,0,0,4.18-1.227,7.09,7.09,0,0,0,2.226-2.135h.181a5.259,5.259,0,0,0,4.952,3h1.863v-4.362c-1.227-.045-1.408-1.363-1.408-1.5V-331.89a6.162,6.162,0,0,0-1.817-4.907c-1.954-1.954-5.543-2.363-7.224-2.363-5.134,0-7.179,1.59-9.223,3.181Zm8.86,9.178c0,1.59-.545,4.5-3.453,4.5a2.68,2.68,0,0,1-2.544-2.953c0-4.134,4.589-5,6-5.27Z" transform="translate(-215.418 348.664)"/><path class="a" d="M236.414-333.034l-.033.028a.644.644,0,0,1-.905-.1l-3.006-3.734a.645.645,0,0,1,.114-.905c2.132-1.658,4.264-3.316,9.619-3.316a15.188,15.188,0,0,1,4.457.7,8.087,8.087,0,0,1,3.224,1.853,6.725,6.725,0,0,1,2.006,5.363v11.813a1.142,1.142,0,0,0,.288.644.679.679,0,0,0,.459.21h.016a.646.646,0,0,1,.645.645v4.362a.646.646,0,0,1-.645.646h-1.863a5.95,5.95,0,0,1-3.812-1.229,6.119,6.119,0,0,1-1.292-1.415,8.927,8.927,0,0,1-.6.677,6.372,6.372,0,0,1-1.305,1l-.054.032a9.409,9.409,0,0,1-4.476,1.3,7.2,7.2,0,0,1-5.24-2.1,7.571,7.571,0,0,1-1.858-5.409,8.994,8.994,0,0,1,1.461-4.993l0,0a9.532,9.532,0,0,1,4.057-3.341l.04-.02a19.713,19.713,0,0,1,3.438-1.172,21.562,21.562,0,0,1,3.087-.516c0-.841-.009-1.421-.051-1.827a1.709,1.709,0,0,0-.282-.885l-.005-.007a1.667,1.667,0,0,0-.762-.53,3.681,3.681,0,0,0-1.344-.236,7.955,7.955,0,0,0-5.364,2.45l-.015.013Zm-.351-1.394a8.528,8.528,0,0,1,5.73-2.361,4.968,4.968,0,0,1,1.818.331,2.942,2.942,0,0,1,1.342.986,2.861,2.861,0,0,1,.514,1.5c.062.595.062,1.362.062,2.553a.645.645,0,0,1-.644.645,20.2,20.2,0,0,0-3.431.526,18.416,18.416,0,0,0-3.212,1.1l-.03.012a8.277,8.277,0,0,0-3.526,2.887,7.721,7.721,0,0,0-1.243,4.282,6.338,6.338,0,0,0,1.5,4.526,5.918,5.918,0,0,0,4.3,1.689,8.118,8.118,0,0,0,3.835-1.127l.039-.022a5.125,5.125,0,0,0,1.047-.8,11.978,11.978,0,0,0,.975-1.158.644.644,0,0,1,.509-.25l.181,0a.646.646,0,0,1,.586.375,5.345,5.345,0,0,0,1.352,1.672,4.7,4.7,0,0,0,3.015.952h1.217V-319.3a1.9,1.9,0,0,1-.768-.5,2.689,2.689,0,0,1-.641-1.527v-11.813a5.6,5.6,0,0,0-1.628-4.451,6.81,6.81,0,0,0-2.709-1.541,13.835,13.835,0,0,0-4.059-.633c-4.481,0-6.5,1.266-8.309,2.644l2.17,2.7Zm9.419,10.1a6.347,6.347,0,0,1-1.083,3.723,3.6,3.6,0,0,1-3.015,1.42,2.978,2.978,0,0,1-2.31-1.051l-.035-.044a3.9,3.9,0,0,1-.845-2.5c0-4.641,4.933-5.6,6.5-5.9l.026,0a.644.644,0,0,1,.754.512.653.653,0,0,1,.012.121v3.726Zm-2.107,2.941a5.066,5.066,0,0,0,.816-2.941v-2.933c-1.7.395-4.706,1.426-4.706,4.478a2.621,2.621,0,0,0,.539,1.674l.029.031a1.715,1.715,0,0,0,1.331.6,2.367,2.367,0,0,0,1.992-.911" transform="translate(-214.163 349.919)"/><path class="a" d="M300.333-314.313h6.406v-16.493c1.227-1.318,2.317-2.5,4.134-2.5,2.135,0,2.09,2.317,2.09,3.271v15.721h6.406v-17.629c0-1.817,0-6.952-6.088-6.952-3.18,0-5.5,2.363-6.906,4.952h-.136v-4.453h-5.906Z" transform="translate(-259.178 348.488)"/><path class="a" d="M299.723-316.211h5.115v-15.847a.644.644,0,0,1,.2-.467c1.318-1.416,2.5-2.677,4.58-2.677,2.736,0,2.734,2.674,2.733,3.858l0,15.133h5.115v-16.983c0-1.648,0-6.306-5.443-6.306a5.811,5.811,0,0,0-3.43,1.149,10.3,10.3,0,0,0-2.911,3.466.643.643,0,0,1-.565.336l-.136,0a.646.646,0,0,1-.646-.645V-339h-4.615v22.79Zm5.761,1.291h-6.406a.646.646,0,0,1-.646-.645v-24.08a.646.646,0,0,1,.646-.645h5.906a.646.646,0,0,1,.645.645v2.462a10.309,10.309,0,0,1,2.215-2.217,7.074,7.074,0,0,1,4.181-1.391c6.734,0,6.734,5.611,6.734,7.6v17.629a.646.646,0,0,1-.645.645h-6.406a.646.646,0,0,1-.646-.645v-15.779c0-.788.005-2.567-1.444-2.567s-2.433.974-3.489,2.105v16.241a.646.646,0,0,1-.645.645" transform="translate(-257.923 349.742)"/><path class="a" d="M365.214-331.351h7.36v-13.9h9.859v-6.179h-9.859v-7.179h14.812V-364.7H365.214Z" transform="translate(-302.014 365.527)"/><path class="a" d="M364.605-333.25h6.07v-13.258a.646.646,0,0,1,.645-.645h9.214v-4.888H371.32a.646.646,0,0,1-.645-.645v-7.179a.646.646,0,0,1,.645-.645h14.166v-4.8H364.605Zm6.715,1.291h-7.36a.646.646,0,0,1-.646-.645v-33.349a.646.646,0,0,1,.646-.645h22.172a.646.646,0,0,1,.645.645v6.088a.646.646,0,0,1-.645.645H371.966v5.888h9.214a.646.646,0,0,1,.645.645v6.179a.646.646,0,0,1-.645.645h-9.214V-332.6a.646.646,0,0,1-.645.645" transform="translate(-300.759 366.781)"/><path class="a" d="M436.1-331.7h6.27v-24.08H436.1Zm6.27-33.531H436.1v5.452h6.27Z" transform="translate(-348.812 365.88)"/><path class="a" d="M435.488-333.6h4.979v-22.79h-4.979Zm5.625,1.291h-6.27a.646.646,0,0,1-.645-.645v-24.08a.646.646,0,0,1,.645-.645h6.27a.646.646,0,0,1,.645.645v24.08a.646.646,0,0,1-.645.645Zm-.645-33.531h-4.979v4.161h4.979Zm-5.625-1.291h6.27a.646.646,0,0,1,.645.645v5.452a.646.646,0,0,1-.645.645h-6.27a.646.646,0,0,1-.645-.645v-5.452a.646.646,0,0,1,.645-.645" transform="translate(-347.557 367.133)"/><path class="a" d="M481.243-331.524a7.6,7.6,0,0,0-1.545-5.134c-2.09-2.59-5.361-2.635-6.861-2.635-6.5,0-8.723,4.362-8.723,10v5.679c0,2.862.682,5.77,2.817,7.679,2.181,2,5.225,2,6.5,2,8.087,0,8.224-5.952,8.315-8.405H476.29c0,1.908-.545,3.453-2.68,3.453-2.453,0-3.09-1.091-3.09-4.089v-7.042c0-1.363,0-4.225,3-4.225,2.272,0,2.5,1.454,2.59,2.726Z" transform="translate(-367.309 348.753)"/><path class="a" d="M480.628-332.959l.007.181a.646.646,0,0,1-.645.645h-5.134a.646.646,0,0,1-.643-.6,3.358,3.358,0,0,0-.349-1.5l-.019-.027a1.74,1.74,0,0,0-1.578-.6c-2.353,0-2.353,2.425-2.353,3.58v7.043a5.083,5.083,0,0,0,.5,2.793c.329.458.939.65,1.943.65a1.742,1.742,0,0,0,1.6-.713,3.977,3.977,0,0,0,.436-2.094.646.646,0,0,1,.645-.645l5.475,0a.643.643,0,0,1,.62.666l0,.075c-.1,2.684-.328,8.953-8.954,8.953a14.368,14.368,0,0,1-3.039-.265,8.153,8.153,0,0,1-3.88-1.895l-.007-.006a8.417,8.417,0,0,1-2.281-3.439,13.774,13.774,0,0,1-.753-4.719v-5.679c0-3.155.682-5.948,2.378-7.892,1.5-1.719,3.759-2.749,6.991-2.749a12.932,12.932,0,0,1,3.373.369,7.435,7.435,0,0,1,3.99,2.508,7.976,7.976,0,0,1,1.681,5.357Zm-1.3-.465a6.413,6.413,0,0,0-1.376-4.08l0-.005a6.183,6.183,0,0,0-3.315-2.069,11.805,11.805,0,0,0-3.045-.324c-2.822,0-4.764.864-6.022,2.306-1.467,1.68-2.056,4.181-2.056,7.045v5.679a12.507,12.507,0,0,0,.672,4.276,7.152,7.152,0,0,0,1.928,2.924l.014.013a6.889,6.889,0,0,0,3.278,1.585,13.3,13.3,0,0,0,2.777.235c6.81,0,7.51-4.588,7.643-7.114h-4.158a4.528,4.528,0,0,1-.621,2.145,2.944,2.944,0,0,1-2.683,1.308,3.327,3.327,0,0,1-2.987-1.19,6.058,6.058,0,0,1-.749-3.545v-7.042c0-1.571,0-4.871,3.644-4.871a2.912,2.912,0,0,1,2.647,1.171l.025.039a3.594,3.594,0,0,1,.5,1.516h3.884Z" transform="translate(-366.056 350.007)"/></g></g></svg>